<svg width="126" height="79" viewBox="0 0 126 79" fill="none" xmlns="http://www.w3.org/2000/svg">
<g clip-path="url(#clip0)">
<path d="M15.5772 76.8525C15.3514 76.4828 15.1256 76.1415 14.8999 75.8001C14.6741 75.4588 14.4625 75.1602 14.265 74.89C14.5048 74.6624 14.7306 74.3922 14.9281 74.0651C15.2809 73.4821 15.6195 72.9274 15.9158 72.4013C16.2121 71.8751 16.452 71.4342 16.6354 71.0787C16.4943 70.9649 16.325 70.8653 16.1415 70.78C15.9581 70.6947 15.7041 70.652 15.3796 70.652C15.0974 70.652 14.8717 70.7089 14.7024 70.8085C14.533 70.908 14.4061 71.0502 14.2932 71.1924C14.1803 71.3347 14.0815 71.5053 13.9828 71.7044C13.884 71.9035 13.7711 72.1026 13.6582 72.3301C13.5454 72.5435 13.4184 72.771 13.2773 72.9843C13.1362 73.1976 12.981 73.3967 12.8117 73.5816C12.6988 73.6954 12.5577 73.7807 12.3742 73.8518C12.1908 73.9229 11.9651 73.9514 11.6829 73.9514H11.4289V70.8369C11.3866 70.8227 11.2737 70.78 11.0903 70.7231C10.9068 70.6662 10.7093 70.6378 10.4694 70.6378C10.159 70.6378 9.90504 70.7089 9.72162 70.8369C9.53819 70.9649 9.43942 71.2067 9.43942 71.5337V78.9715H11.4289V75.7859H11.8099C12.0074 75.7859 12.2049 75.7717 12.3884 75.7433C12.7693 76.241 13.1362 76.7672 13.4748 77.3218C13.8134 77.8765 14.138 78.4311 14.4484 78.9573H16.8047C16.6354 78.6302 16.452 78.2889 16.2262 77.9049C16.0287 77.5778 15.8029 77.2081 15.5772 76.8525ZM25.0448 71.7044C24.6497 71.3062 24.1841 71.0076 23.6338 70.78C23.0977 70.5525 22.5192 70.4387 21.8983 70.4387C21.2775 70.4387 20.699 70.5525 20.1628 70.78C19.6267 71.0076 19.1469 71.3204 18.7519 71.7044C18.3568 72.1026 18.0464 72.5577 17.8206 73.0981C17.5949 73.6385 17.482 74.2074 17.482 74.8189C17.482 75.4304 17.5949 76.0135 17.8206 76.5397C18.0464 77.0801 18.3568 77.5351 18.7519 77.9333C19.1469 78.3315 19.6125 78.6302 20.1628 78.8577C20.699 79.0853 21.2775 79.199 21.8983 79.199C22.5192 79.199 23.0977 79.0853 23.6338 78.8577C24.17 78.6302 24.6497 78.3173 25.0448 77.9333C25.4399 77.5351 25.7503 77.0801 25.976 76.5397C26.2018 75.9992 26.3147 75.4304 26.3147 74.8189C26.3147 74.2074 26.2018 73.6243 25.976 73.0981C25.7503 72.5719 25.4399 72.1026 25.0448 71.7044ZM24.0571 75.8144C23.9442 76.113 23.7749 76.3832 23.5774 76.6108C23.3657 76.8383 23.1259 77.009 22.8437 77.137C22.5615 77.2649 22.237 77.3218 21.8983 77.3218C21.5597 77.3218 21.2493 77.2649 20.953 77.137C20.6708 77.009 20.4168 76.8383 20.2193 76.6108C20.0076 76.3832 19.8524 76.1272 19.7395 75.8144C19.6267 75.5157 19.5702 75.1886 19.5702 74.8331C19.5702 74.4776 19.6267 74.1505 19.7395 73.8376C19.8524 73.539 20.0217 73.2687 20.2193 73.0412C20.4309 72.8137 20.6708 72.643 20.953 72.515C21.2352 72.387 21.5597 72.3301 21.8983 72.3301C22.237 72.3301 22.5474 72.387 22.8437 72.515C23.14 72.643 23.3798 72.8137 23.5774 73.0412C23.789 73.2687 23.9442 73.5247 24.0571 73.8376C24.17 74.1363 24.2264 74.4776 24.2264 74.8331C24.2405 75.1886 24.17 75.5157 24.0571 75.8144ZM35.9234 70.78C35.6976 70.6947 35.4296 70.652 35.1333 70.652C34.8511 70.652 34.6112 70.7089 34.3854 70.8369C34.1597 70.9649 33.9763 71.2067 33.8352 71.548C33.6094 72.0599 33.3554 72.6003 33.0732 73.1692C32.8052 73.7381 32.523 74.3069 32.2267 74.89C31.9021 74.2642 31.5776 73.6101 31.2672 72.9274C30.9568 72.2448 30.6464 71.6191 30.3642 71.0076C30.2936 70.9365 30.1525 70.8653 29.9409 70.78C29.7292 70.6947 29.4611 70.652 29.1507 70.652C28.9955 70.652 28.8544 70.6662 28.7274 70.6947C28.5863 70.7231 28.4735 70.78 28.3606 70.8653C28.2477 70.9365 28.163 71.0502 28.0925 71.1924C28.022 71.3347 27.9937 71.5053 27.9796 71.7044L27.5704 78.9999H29.5881L29.8562 74.0225C29.9832 74.2785 30.1243 74.5629 30.2795 74.8758C30.4347 75.1886 30.5758 75.5015 30.7169 75.8144C30.858 76.1272 30.9991 76.4401 31.1261 76.7245C31.2531 77.0232 31.366 77.2649 31.4506 77.4925H32.9321C33.0309 77.2792 33.1438 77.0232 33.2567 76.7388C33.3836 76.4543 33.5106 76.1699 33.6517 75.857C33.7928 75.5442 33.9339 75.2313 34.0891 74.9184C34.2443 74.6056 34.3854 74.2927 34.5265 73.994L34.7946 78.9715H36.7982L36.3467 70.9649C36.2903 70.9365 36.1492 70.8653 35.9234 70.78ZM44.3751 70.652H39.606C38.8159 70.652 38.4208 71.036 38.4208 71.804V78.9857H40.4103V72.5435H43.5568V78.9857H45.5462V71.8182C45.5462 71.0502 45.1653 70.652 44.3751 70.652ZM54.6188 76.6676C54.4072 76.1272 54.1814 75.5584 53.9274 74.9611C53.6876 74.3638 53.4477 73.7949 53.2078 73.2403C52.9821 72.6999 52.7704 72.2022 52.5729 71.7613C52.3754 71.3204 52.2202 71.0076 52.1073 70.7942C52.0932 70.78 52.0508 70.7658 51.9944 70.7231C51.9239 70.6805 51.8533 70.6378 51.7404 70.5951C51.6417 70.5525 51.5147 70.5098 51.3877 70.4814C51.2607 70.4529 51.1196 70.4387 50.9926 70.4387C50.6399 70.4387 50.3436 70.5098 50.1319 70.652C49.9062 70.7942 49.7227 71.036 49.5816 71.3773C49.2994 72.0315 49.0031 72.7141 48.7068 73.4252C48.4105 74.1362 48.1283 74.8189 47.8461 75.5015C47.5781 76.1841 47.31 76.8241 47.0701 77.4214C46.8302 78.0187 46.6327 78.5591 46.4634 79.0142H48.5234C48.6363 78.7155 48.7351 78.4311 48.8338 78.1467C48.9326 77.8622 49.0455 77.5494 49.1725 77.2081H52.6434C52.7987 77.592 52.9256 77.9333 53.0244 78.2178C53.1232 78.5022 53.2219 78.7724 53.3066 78.9999H55.5077C55.4372 78.8151 55.3384 78.5306 55.1691 78.104C55.0139 77.6916 54.8163 77.2081 54.6188 76.6676ZM49.8779 75.3593C49.9626 75.1175 50.0614 74.8758 50.1601 74.6056C50.2589 74.3353 50.3577 74.0794 50.4564 73.8234C50.5552 73.5674 50.6399 73.3399 50.7245 73.1265C50.8092 72.9132 50.8656 72.7568 50.9221 72.643C50.9644 72.7426 51.0349 72.9132 51.1196 73.1265C51.2043 73.3399 51.2889 73.5816 51.3877 73.8376C51.4865 74.0936 51.5852 74.3496 51.684 74.634C51.7827 74.9042 51.8815 75.146 51.9521 75.3735H49.8779V75.3593ZM62.6049 70.652C62.2945 70.652 62.0405 70.7231 61.8571 70.8511C61.6596 70.9791 61.5749 71.2209 61.5749 71.548V73.6954H58.4002V70.8369C58.3579 70.8227 58.245 70.78 58.0616 70.7231C57.8782 70.6662 57.6806 70.6378 57.4408 70.6378C57.1303 70.6378 56.8764 70.7089 56.6929 70.8369C56.5095 70.9649 56.4107 71.2067 56.4107 71.5337V78.9715H58.4002V75.601H61.5749V78.9715H63.5644V70.8227C63.5221 70.8085 63.4092 70.7658 63.2258 70.7089C63.0282 70.6805 62.8307 70.652 62.6049 70.652ZM71.4235 70.652C71.1272 70.652 70.8732 70.7089 70.6757 70.8227C70.4782 70.9365 70.2806 71.1356 70.0831 71.42L67.2047 75.5442V70.8369C67.1624 70.8227 67.0495 70.78 66.8661 70.7231C66.6826 70.6662 66.4851 70.6378 66.2593 70.6378C65.963 70.6378 65.7091 70.7089 65.5256 70.8369C65.3281 70.9649 65.2434 71.2067 65.2434 71.5337V78.9715H67.12C67.1906 78.8435 67.3035 78.6729 67.4587 78.4311C67.6139 78.1893 67.7832 77.9333 67.9807 77.6205C68.1783 77.3218 68.3899 76.9947 68.6157 76.6534C68.8414 76.3121 69.0672 75.9708 69.2788 75.6295C69.5046 75.2882 69.7021 74.9753 69.8997 74.6909C70.0972 74.3922 70.2665 74.1505 70.4076 73.9372V78.9715H72.383V70.8085C72.2278 70.7516 72.0867 70.7089 71.9456 70.6805C71.7904 70.6805 71.621 70.652 71.4235 70.652ZM80.355 70.9507C80.2844 70.8653 80.1857 70.7942 80.0869 70.7516C79.9881 70.7089 79.8894 70.6805 79.7765 70.6662C79.6918 70.652 79.6072 70.6378 79.4943 70.6236C79.3814 70.6094 79.2544 70.5951 79.0851 70.5809C78.9158 70.5667 78.7182 70.5525 78.4925 70.5525C78.2667 70.5525 77.9704 70.5383 77.6459 70.5383C76.9263 70.5383 76.3337 70.6236 75.854 70.78C75.3742 70.9365 74.9933 71.1498 74.697 71.42C74.4007 71.6902 74.2031 71.9888 74.0761 72.3444C73.9492 72.6857 73.8927 73.0412 73.8927 73.4252C73.8927 73.9229 73.9915 74.3638 74.189 74.762C74.3866 75.1602 74.7111 75.4731 75.1626 75.729C75.0497 75.9281 74.9086 76.1557 74.7675 76.4117C74.6264 76.6676 74.4712 76.9378 74.316 77.2365C74.1608 77.5351 74.0056 77.8196 73.8504 78.1324C73.6952 78.4453 73.5541 78.744 73.4271 79.0284H75.7129C75.7411 78.9431 75.8116 78.7724 75.9245 78.5306C76.0374 78.2889 76.1644 78.0187 76.3055 77.7342C76.4466 77.4498 76.5877 77.1654 76.7288 76.8952C76.8699 76.625 76.9969 76.4117 77.1097 76.2552C77.2226 76.2695 77.3355 76.2837 77.4484 76.2837H77.8152C77.8576 76.2837 77.9281 76.2837 78.0128 76.2837C78.0974 76.2837 78.1821 76.2694 78.2667 76.2694C78.3514 76.2694 78.4361 76.2552 78.5066 76.2552C78.5771 76.2552 78.6195 76.241 78.6477 76.241V79.0568H80.5948V71.804C80.5948 71.6191 80.5666 71.4769 80.5243 71.3489C80.4961 71.1498 80.4255 71.036 80.355 70.9507ZM78.6618 74.4491C78.6336 74.4491 78.6054 74.4491 78.563 74.4633C78.5207 74.4776 78.4643 74.4776 78.3796 74.4918C78.295 74.506 78.1962 74.506 78.0692 74.506C77.9422 74.506 77.787 74.506 77.6036 74.506C77.2508 74.506 76.9686 74.4776 76.757 74.4207C76.5453 74.3638 76.376 74.2785 76.249 74.1789C76.1221 74.0794 76.0374 73.9656 75.9951 73.8234C75.9527 73.6954 75.9245 73.5532 75.9245 73.411C75.9245 73.283 75.9386 73.155 75.981 73.0128C76.0233 72.8706 76.1079 72.7568 76.2208 72.643C76.3478 72.5292 76.5171 72.4297 76.757 72.3586C76.9827 72.2875 77.2932 72.2448 77.6741 72.2448C77.9563 72.2448 78.168 72.2448 78.3373 72.259C78.5066 72.2733 78.6054 72.2875 78.6477 72.2875L78.6618 74.4491ZM96.172 71.7044C95.7769 71.3062 95.3113 71.0076 94.761 70.78C94.2248 70.5525 93.6463 70.4387 93.0255 70.4387C92.5035 70.4387 92.0096 70.524 91.544 70.6805C91.0784 70.8369 90.6551 71.0644 90.2741 71.3489C89.8932 71.6333 89.5686 71.9746 89.3147 72.387C89.0466 72.7852 88.849 73.2261 88.7362 73.7096H87.4098V70.8511C87.3675 70.8369 87.2546 70.7942 87.0712 70.7374C86.8878 70.6805 86.6902 70.652 86.4504 70.652C86.14 70.652 85.886 70.7231 85.7026 70.8511C85.505 70.9791 85.4204 71.2209 85.4204 71.548V78.9857H87.4098V75.6153H88.6797C88.7785 76.1272 88.9478 76.6108 89.2018 77.0516C89.4558 77.4925 89.7803 77.8622 90.1612 78.1893C90.5422 78.5164 90.9796 78.7582 91.4734 78.9431C91.9673 79.1279 92.4893 79.2133 93.0396 79.2133C93.6605 79.2133 94.239 79.0995 94.7751 78.8719C95.3113 78.6444 95.791 78.3315 96.1861 77.9476C96.5812 77.5494 96.8916 77.0943 97.1173 76.5539C97.3431 76.0135 97.456 75.4446 97.456 74.8331C97.456 74.2216 97.3431 73.6385 97.1173 73.1123C96.8775 72.5719 96.5671 72.1026 96.172 71.7044ZM95.1843 75.8144C95.0714 76.113 94.9021 76.3832 94.7046 76.6108C94.4929 76.8383 94.2531 77.009 93.9709 77.137C93.6887 77.2649 93.3642 77.3218 93.0255 77.3218C92.6869 77.3218 92.3624 77.2649 92.0802 77.137C91.798 77.009 91.544 76.8383 91.3465 76.6108C91.1348 76.3832 90.9796 76.1272 90.8667 75.8144C90.7538 75.5157 90.6974 75.1886 90.6974 74.8331C90.6974 74.4776 90.7538 74.1505 90.8667 73.8376C90.9796 73.539 91.1489 73.2687 91.3465 73.0412C91.5581 72.8137 91.798 72.643 92.0802 72.515C92.3624 72.387 92.6869 72.3301 93.0255 72.3301C93.3642 72.3301 93.6887 72.387 93.9709 72.515C94.2531 72.643 94.507 72.8137 94.7046 73.0412C94.9162 73.2687 95.0714 73.5247 95.1843 73.8376C95.2972 74.1363 95.3536 74.4776 95.3536 74.8331C95.3536 75.1886 95.2972 75.5157 95.1843 75.8144ZM107.036 70.78C106.811 70.6947 106.543 70.652 106.246 70.652C105.964 70.652 105.724 70.7089 105.499 70.8369C105.273 70.9649 105.089 71.2067 104.948 71.548C104.722 72.0599 104.469 72.6003 104.186 73.1692C103.918 73.7381 103.636 74.3069 103.34 74.89C103.015 74.2642 102.691 73.6101 102.38 72.9274C102.07 72.2448 101.759 71.6191 101.477 71.0076C101.407 70.9365 101.266 70.8653 101.054 70.78C100.842 70.6947 100.574 70.652 100.264 70.652C100.109 70.652 99.9675 70.6662 99.8405 70.6947C99.6994 70.7231 99.5865 70.78 99.4737 70.8653C99.3608 70.9365 99.2761 71.0502 99.2056 71.1924C99.135 71.3347 99.1068 71.5053 99.0927 71.7044L98.6835 78.9999H100.701L100.969 74.0225C101.096 74.2785 101.237 74.5629 101.393 74.8758C101.548 75.1886 101.689 75.5015 101.83 75.8144C101.971 76.1272 102.112 76.4401 102.239 76.7245C102.366 77.0232 102.479 77.2649 102.564 77.4925H104.045C104.144 77.2792 104.257 77.0232 104.37 76.7388C104.497 76.4543 104.624 76.1699 104.765 75.857C104.906 75.5442 105.047 75.2313 105.202 74.9184C105.357 74.6056 105.499 74.2927 105.64 73.994L105.908 78.9715H107.911L107.46 70.9649C107.417 70.9365 107.262 70.8653 107.036 70.78ZM116.264 70.7089C116.123 70.6805 115.954 70.6662 115.756 70.6662C115.46 70.6662 115.206 70.7231 115.008 70.8369C114.811 70.9507 114.613 71.1498 114.416 71.4342L111.537 75.5584V70.8511C111.495 70.8369 111.382 70.7942 111.199 70.7374C111.015 70.6805 110.818 70.652 110.592 70.652C110.296 70.652 110.042 70.7231 109.858 70.8511C109.675 70.9791 109.576 71.2209 109.576 71.548V78.9857H111.453C111.523 78.8577 111.636 78.6871 111.791 78.4453C111.947 78.2035 112.116 77.9476 112.314 77.6347C112.511 77.3361 112.723 77.009 112.948 76.6676C113.174 76.3263 113.4 75.985 113.612 75.6437C113.823 75.3024 114.035 74.9895 114.232 74.7051C114.43 74.4065 114.599 74.1647 114.74 73.9514V78.9857H116.716V70.8227C116.546 70.78 116.405 70.7374 116.264 70.7089Z" fill="black"/>
<path d="M118.353 0H7.64748C3.42867 0 0 3.42736 0 7.66535V54.2832C0 58.5211 3.42867 61.9485 7.64748 61.9485H118.353C122.571 61.9485 126 58.5211 126 54.2832V7.66535C126 3.42736 122.571 0 118.353 0Z" fill="black"/>
<path d="M19.5984 11.8891H12.981V50.0167H19.5984V11.8891Z" fill="#C6346E"/>
<path d="M44.4739 10.3817C33.0732 10.3817 23.8173 19.6398 23.8173 31.0738C23.8173 42.5078 33.0732 51.766 44.4739 51.766C55.8746 51.766 65.1306 42.5078 65.1306 31.0738C65.1306 19.6398 55.8887 10.3817 44.4739 10.3817ZM44.4739 44.5273C37.0663 44.5273 31.0556 38.5116 31.0556 31.0738C31.0556 23.636 37.0663 17.6204 44.4739 17.6204C51.8815 17.6204 57.8923 23.636 57.8923 31.0738C57.8923 38.5116 51.8956 44.5273 44.4739 44.5273Z" fill="#EAB800"/>
<path d="M85.6885 21.0335L75.6 11.8891H69.3071V50.0167H75.9245V21.1046L85.6885 29.9787L95.4524 21.1046V50.0167H102.07V11.8891H95.7769L85.6885 21.0335ZM109.873 18.7012C111.777 18.7012 113.315 17.1652 113.315 15.2596C113.315 13.3539 111.777 11.818 109.873 11.818C107.968 11.818 106.43 13.3539 106.43 15.2596C106.43 17.1652 107.968 18.7012 109.873 18.7012ZM106.43 50.0167H113.047V21.8441H106.43V50.0167Z" fill="white"/>
</g>
<defs>
<clipPath id="clip0">
<rect width="126" height="79" fill="white"/>
</clipPath>
</defs>
</svg>
