<svg width="75" height="75" viewBox="0 0 75 75" fill="none" xmlns="http://www.w3.org/2000/svg">
<g clip-path="url(#clip0)">
<path d="M58.713 56.031C58.1059 56.031 57.6144 56.5231 57.6144 57.1296V65.4489H27.6645V44.8151C27.6645 44.0478 27.0402 43.4235 26.2729 43.4235H14.05C13.2826 43.4235 12.6583 44.0478 12.6583 44.8151V65.4489H5.12123V32.8497H49.7769C50.384 32.8497 50.8755 32.3576 50.8755 31.7511C50.8755 31.144 50.384 30.6524 49.7769 30.6524H2.24188L4.45575 25.4808C4.69436 24.9235 4.4363 24.2775 3.8784 24.0389C3.3205 23.7997 2.67447 24.0583 2.43586 24.6162L0.171067 29.9057C-0.109315 30.5603 -0.0423664 31.3059 0.349595 31.9004C0.741557 32.4944 1.40074 32.8497 2.11257 32.8497H2.92396V66.2546C2.92396 67.0219 3.54823 67.6462 4.31556 67.6462H58.42C59.1868 67.6462 59.8116 67.0219 59.8116 66.2546V57.1296C59.8116 56.5231 59.3195 56.031 58.713 56.031ZM14.8556 65.4489V45.6208H25.4672V65.4489H14.8556Z" fill="white"/>
<path d="M50.3645 44.5222C50.3645 43.9157 49.873 43.4236 49.2659 43.4236H36.8324C36.2259 43.4236 35.7338 43.9157 35.7338 44.5222V55.8576H33.5211C32.9145 55.8576 32.4224 56.3492 32.4224 56.9563C32.4224 57.5628 32.9145 58.0549 33.5211 58.0549H52.5773C53.1838 58.0549 53.6759 57.5628 53.6759 56.9563C53.6759 56.3492 53.1838 55.8576 52.5773 55.8576H50.3645V44.5222ZM48.1673 49.6406H44.1481V45.6209H48.1673V49.6406ZM41.9508 45.6209V49.6406H37.9311V45.6209H41.9508ZM37.9311 51.8379H41.9508V55.8576H37.9311V51.8379ZM44.1481 55.8576V51.8379H48.1673V55.8576H44.1481Z" fill="white"/>
<path d="M73.8765 13.2372C73.6024 12.6959 72.9415 12.479 72.4002 12.7525C71.8583 13.0266 71.6415 13.6875 71.9156 14.2288C72.5044 15.3938 72.803 16.6515 72.803 17.9676V28.5128C72.803 29.2882 72.1725 29.9187 71.3971 29.9187C70.6218 29.9187 69.9907 29.2882 69.9907 28.5128V27.2654C69.9907 24.6098 67.8306 22.4497 65.1755 22.4497H52.6173C52.3764 20.6581 50.8377 19.2722 48.9815 19.2722H47.6568V12.8452H48.9815C50.8377 12.8452 52.377 11.4593 52.6173 9.66774H64.5026C66.2839 9.66774 67.9816 10.2228 69.4116 11.2739C69.9008 11.6333 70.5886 11.5286 70.948 11.0393C71.3073 10.5507 71.202 9.86286 70.7128 9.50351C68.9029 8.17313 66.7554 7.47046 64.5026 7.47046H51.5513C50.9447 7.47046 50.4526 7.96199 50.4526 8.5691V9.17678C50.4526 9.9876 49.7929 10.6479 48.9815 10.6479H47.6568V9.2094C47.6568 8.25038 46.8763 7.47046 45.9173 7.47046H41.2979C40.3389 7.47046 39.5584 8.25038 39.5584 9.2094V16.0559H28.7025C27.918 12.467 24.7147 9.77188 20.8941 9.77188C17.0729 9.77188 13.8703 12.467 13.0858 16.0559H9.08605C7.27215 16.0559 5.63907 17.1333 4.92667 18.8007L4.32586 20.2021C4.08725 20.76 4.34531 21.406 4.90321 21.6446C5.04455 21.7053 5.19103 21.7339 5.33523 21.7339C5.76152 21.7339 6.16722 21.4844 6.34575 21.0672L6.94657 19.6648C7.31335 18.807 8.15278 18.2531 9.08605 18.2531H12.9015V25.2632C12.9015 25.8704 13.3936 26.3619 14.0002 26.3619H27.7869C28.3935 26.3619 28.8856 25.8704 28.8856 25.2632V18.2531H39.5584V22.908C39.5584 23.8671 40.3383 24.6476 41.2973 24.6476H45.9173C46.8763 24.6476 47.6568 23.8671 47.6568 22.908V21.4695H48.9815C49.7923 21.4695 50.4526 22.1298 50.4526 22.9412V23.5489C50.4526 24.1555 50.9447 24.6476 51.5513 24.6476H54.6772V27.6814C53.776 27.8651 53.0951 28.6644 53.0951 29.6195V51.856C53.0951 52.9466 53.9826 53.8336 55.0726 53.8336H62.4907C63.5814 53.8336 64.4683 52.9466 64.4683 51.856V29.6195C64.4683 28.6644 63.7879 27.8651 62.8861 27.6814V24.6476H65.175C66.6186 24.6476 67.7934 25.8217 67.7934 27.2654V28.5128C67.7934 30.4995 69.4099 32.116 71.3966 32.116C73.3833 32.116 74.9998 30.4995 74.9998 28.5128V17.9682C75.0003 16.3042 74.6221 14.7129 73.8765 13.2372ZM26.6883 17.7639V18.6239H21.9922V12.0733C24.6816 12.5917 26.6883 14.9618 26.6883 17.7639ZM19.7949 12.0733V18.6239H15.0988V17.7639C15.0988 14.9378 17.1296 12.5871 19.7949 12.0733ZM15.0988 20.8212H19.7949V24.1652H15.0988V20.8212ZM21.9922 24.1646V20.8212H26.6883V24.1646H21.9922ZM45.4595 22.4503H41.7557V9.66774H45.4595V22.4503ZM62.2716 51.6363H55.2929V29.8392H62.2716V51.6363ZM60.6888 27.6419H56.8751V24.6476H60.6888V27.6419Z" fill="white"/>
<path d="M17.1256 53.7571C16.5191 53.7571 16.027 54.2492 16.027 54.8557V56.2141C16.027 56.8212 16.5191 57.3128 17.1256 57.3128C17.7322 57.3128 18.2243 56.8212 18.2243 56.2141V54.8557C18.2243 54.2492 17.7322 53.7571 17.1256 53.7571Z" fill="white"/>
</g>
<defs>
<clipPath id="clip0">
<rect width="75" height="75" fill="white"/>
</clipPath>
</defs>
</svg>
