<svg width="64" height="64" viewBox="0 0 64 64" fill="none" xmlns="http://www.w3.org/2000/svg">
<g clip-path="url(#clip0)">
<path d="M47.0149 11.6954C46.9455 11.6199 46.8735 11.5527 46.8058 11.4898C46.7613 11.4484 46.7094 11.4004 46.6441 11.3377L38.1722 3.31456L38.0466 3.19469C37.8666 3.02206 37.6985 2.86344 37.4946 2.75081C37.4626 2.73244 37.43 2.71519 37.3957 2.70056C37.2364 2.62931 37.0535 2.58594 36.8261 2.58594H1.71025C0.76725 2.58594 0 3.35069 0 4.29081V59.7094C0 60.6494 0.76725 61.4143 1.71025 61.4143H45.6655C46.6105 61.4143 47.3794 60.6496 47.3794 59.7094V33.6023C47.3794 33.0849 46.96 32.6656 46.4426 32.6656C45.9252 32.6656 45.5059 33.0849 45.5059 33.6023V59.5407H1.8735V4.45944H36.0902L36.0872 9.34369C36.085 10.4106 36.5024 11.4174 37.2624 12.1791C38.0304 12.9487 39.0509 13.3726 40.136 13.3726H45.5057V29.2403C45.5057 29.7577 45.9251 30.1771 46.4425 30.1771C46.9599 30.1771 47.3792 29.7577 47.3792 29.2403C47.3792 29.2403 47.3792 12.4706 47.3792 12.4357C47.3792 12.1343 47.2361 11.8668 47.0149 11.6954ZM38.5885 10.8557C38.1825 10.4488 37.9595 9.91331 37.9608 9.34631L37.963 5.69581L44.09 11.4991H40.1359C39.552 11.4991 39.0025 11.2707 38.5885 10.8557Z" fill="white"/>
<path d="M32.3918 16.6728C32.3918 16.1555 31.9724 15.7361 31.455 15.7361H13.9096C13.3922 15.7361 12.9729 16.1555 12.9729 16.6728C12.9729 17.1902 13.3922 17.6096 13.9096 17.6096H31.455C31.9724 17.6096 32.3918 17.1902 32.3918 16.6728Z" fill="white"/>
<path d="M13.9096 11.6792H31.455C31.9724 11.6792 32.3918 11.2598 32.3918 10.7424C32.3918 10.225 31.9724 9.80566 31.455 9.80566H13.9096C13.3922 9.80566 12.9729 10.225 12.9729 10.7424C12.9729 11.2597 13.3922 11.6792 13.9096 11.6792Z" fill="white"/>
<path d="M40.2007 33.4373H23.2237C22.7064 33.4373 22.287 33.8566 22.287 34.374C22.287 34.8914 22.7064 35.3108 23.2237 35.3108H40.2007C40.7181 35.3108 41.1375 34.8914 41.1375 34.374C41.1375 33.8566 40.718 33.4373 40.2007 33.4373Z" fill="white"/>
<path d="M40.2007 28.0251H23.2237C22.7064 28.0251 22.287 28.4445 22.287 28.9619C22.287 29.4793 22.7064 29.8986 23.2237 29.8986H40.2007C40.7181 29.8986 41.1375 29.4793 41.1375 28.9619C41.1375 28.4445 40.718 28.0251 40.2007 28.0251Z" fill="white"/>
<path d="M40.2007 49.4058H23.2237C22.7064 49.4058 22.287 49.8251 22.287 50.3425C22.287 50.8599 22.7064 51.2793 23.2237 51.2793H40.2007C40.7181 51.2793 41.1375 50.8599 41.1375 50.3425C41.1375 49.8251 40.718 49.4058 40.2007 49.4058Z" fill="white"/>
<path d="M40.2007 43.9971H23.2237C22.7064 43.9971 22.287 44.4164 22.287 44.9338C22.287 45.4512 22.7064 45.8706 23.2237 45.8706H40.2007C40.7181 45.8706 41.1375 45.4512 41.1375 44.9338C41.1375 44.4164 40.718 43.9971 40.2007 43.9971Z" fill="white"/>
<path d="M19.8921 22.829C19.4764 22.5211 18.8898 22.6086 18.5819 23.0245L16.7416 25.5102H7.8045C6.915 25.5102 6.19138 26.2317 6.19138 27.1186V36.2175C6.19138 37.1044 6.915 37.8259 7.8045 37.8259H16.9675C17.857 37.8259 18.5806 37.1044 18.5806 36.2175V27.1186C18.5806 26.8619 18.5185 26.6199 18.4108 26.4044L20.0876 24.1392C20.3955 23.7235 20.3079 23.1369 19.8921 22.829ZM16.7071 35.9522H8.06488V27.3836H15.3545L12.3684 31.417L11.444 30.376C11.1006 29.9892 10.5085 29.954 10.1216 30.2976C9.73475 30.6411 9.69963 31.2332 10.0433 31.62L11.7341 33.5241C11.9123 33.7247 12.1674 33.8389 12.4345 33.8389C12.4484 33.8389 12.4623 33.8386 12.4761 33.838C12.7581 33.8254 13.0195 33.6864 13.1874 33.4595L16.707 28.7052V35.9522H16.7071Z" fill="white"/>
<path d="M19.8921 38.526C19.4764 38.2182 18.8898 38.3056 18.5819 38.7215L16.7416 41.2071H7.8045C6.915 41.2071 6.19138 41.9286 6.19138 42.8155V51.9143C6.19138 52.8012 6.915 53.5227 7.8045 53.5227H16.9675C17.857 53.5227 18.5806 52.8012 18.5806 51.9143V42.8155C18.5806 42.5587 18.5185 42.3167 18.4108 42.1012L20.0876 39.8361C20.3955 39.4203 20.3079 38.8337 19.8921 38.526ZM16.7071 51.6492H8.06488V43.0806H15.3546L12.3685 47.1141L11.4441 46.0731C11.1008 45.6863 10.5086 45.6511 10.1218 45.9947C9.73488 46.3382 9.69975 46.9303 10.0434 47.3171L11.7343 49.2212C11.9124 49.4218 12.1675 49.536 12.4346 49.536C12.4485 49.536 12.4624 49.5357 12.4763 49.5351C12.7583 49.5226 13.0196 49.3835 13.1875 49.1566L16.7071 44.4023V51.6492Z" fill="white"/>
<path d="M63.0633 14.2533H59.8448V12.3322C59.8448 11.5488 59.3955 10.869 58.7404 10.5307V6.96659C58.7404 5.07309 57.192 3.53271 55.2889 3.53271C53.3858 3.53271 51.8374 5.07309 51.8374 6.96659V10.5316C51.1843 10.8701 50.7365 11.5496 50.7365 12.3323V51.2928C50.7365 51.2987 50.7373 51.3043 50.7374 51.3102C50.7376 51.3228 50.7385 51.3353 50.7393 51.3478C50.7406 51.372 50.7429 51.3958 50.746 51.4195C50.7476 51.431 50.7493 51.4425 50.7513 51.454C50.756 51.481 50.7619 51.5076 50.7689 51.5338C50.771 51.5417 50.7726 51.5496 50.775 51.5575C50.7855 51.593 50.7976 51.6278 50.812 51.6615L54.2983 59.7998C54.3073 59.8208 54.317 59.8415 54.3274 59.8616L54.3395 59.885C54.4355 60.0707 54.6893 60.5617 55.2885 60.5617C55.2934 60.5617 55.2984 60.5617 55.3033 60.5616C55.916 60.5535 56.1583 60.0525 56.2616 59.8385C56.2679 59.8257 56.2738 59.8128 56.2793 59.7998L59.7688 51.6622C59.7833 51.6283 59.7956 51.5933 59.8061 51.5576C59.8083 51.5502 59.8099 51.5427 59.8119 51.5353C59.819 51.5087 59.8251 51.4817 59.8299 51.4541C59.8319 51.4428 59.8335 51.4315 59.835 51.4202C59.8383 51.3963 59.8405 51.3722 59.8419 51.3478C59.8426 51.3355 59.8435 51.3232 59.8438 51.3108C59.8439 51.3048 59.8446 51.299 59.8446 51.2928V44.2446C59.8446 43.7272 59.4253 43.3078 58.9079 43.3078C58.3905 43.3078 57.9711 43.7272 57.9711 44.2446V50.3561H52.6099V12.3322C52.6099 12.249 52.6865 12.1758 52.774 12.1758H57.8035C57.8928 12.1758 57.9711 12.2488 57.9711 12.3322V39.879C57.9711 40.3963 58.3905 40.8157 58.9079 40.8157C59.4253 40.8157 59.8446 40.3963 59.8446 39.879V16.127H62.1264V29.2226C62.1264 29.74 62.5458 30.1593 63.0631 30.1593C63.5805 30.1593 64 29.74 64 29.2226V15.1902C64 14.6728 63.5806 14.2533 63.0633 14.2533ZM57.487 52.2296L55.2889 57.3555L53.0933 52.2296H57.487ZM53.711 10.3023V6.96659C53.711 6.10621 54.4189 5.40621 55.289 5.40621C56.1591 5.40621 56.867 6.10621 56.867 6.96659V10.3025H53.711V10.3023Z" fill="white"/>
</g>
<defs>
<clipPath id="clip0">
<rect width="64" height="64" fill="white"/>
</clipPath>
</defs>
</svg>
