<svg width="74" height="74" viewBox="0 0 74 74" fill="none" xmlns="http://www.w3.org/2000/svg">
<g clip-path="url(#clip0)">
<path d="M72.0513 57.9504H67.0277V47.2902H71.6639C72.8974 47.2902 73.901 46.2868 73.901 45.0532V37.4877V33.2603C73.901 32.0267 72.8975 31.0233 71.6639 31.0233H67.0277V29.1295H71.6639C72.8974 29.1295 73.901 28.126 73.901 26.8924V19.3269V15.0995C73.901 13.866 72.8975 12.8625 71.6639 12.8625H67.0277V9.77673C67.0277 8.86112 66.2828 8.11621 65.3671 8.11621H61.4755C60.5599 8.11621 59.8151 8.86112 59.8151 9.77673V12.8625C52.5281 12.8625 55.9441 12.8625 48.6309 12.8625C48.0321 12.8625 47.5469 13.3478 47.5469 13.9465C47.5469 14.5451 48.0321 15.0304 48.6309 15.0304H50.6453C43.0433 22.6325 46.3107 19.3652 38.7144 26.9615H28.735L40.6662 15.0304H43.5723C44.1711 15.0304 44.6563 14.5451 44.6563 13.9465C44.6563 13.3478 44.1711 12.8625 43.5723 12.8625C42.1725 12.8625 15.5638 12.8625 14.185 12.8625V9.77673C14.185 8.86112 13.4401 8.11621 12.5245 8.11621H8.63285C7.71725 8.11621 6.97233 8.86112 6.97233 9.77673V12.8625H2.3362C1.10263 12.8625 0.0991484 13.866 0.0991484 15.0995V26.8924C0.0991484 27.4882 0.330688 28.0482 0.750984 28.4704C0.752141 28.4716 0.753152 28.4729 0.754309 28.4742C0.755465 28.4755 0.754309 28.4742 0.754309 28.4742C0.757199 28.4771 0.760379 28.4794 0.763125 28.4823C1.18458 28.8994 1.74247 29.1295 2.33606 29.1295H6.97233V31.0233H2.3362C1.10263 31.0233 0.0991484 32.0267 0.0991484 33.2603V45.0532C0.0991484 46.291 1.10321 47.2902 2.3362 47.2902H6.97248V50.338C6.97248 50.9366 7.45781 51.422 8.05646 51.422C8.65511 51.422 9.14045 50.9366 9.14045 50.338V47.2902H12.0171V57.9147H9.14045V55.3966C9.14045 54.7979 8.65511 54.3126 8.05646 54.3126C7.45781 54.3126 6.97248 54.7979 6.97248 55.3966V57.9147H1.94871C0.874269 57.9147 0 58.789 0 59.8635V63.8991C0 64.9736 0.874269 65.8479 1.94871 65.8479H19.2085C20.2831 65.8479 21.1574 64.9736 21.1574 63.8991V59.8635C21.1574 58.7889 20.2831 57.9147 19.2085 57.9147H14.185V47.2902H14.2285H59.8151V57.9504H54.7914C53.7168 57.9504 52.8427 58.8247 52.8427 59.8992V63.9349C52.8427 65.0095 53.7169 65.8836 54.7914 65.8836H72.0513C73.1259 65.8836 74 65.0093 74 63.9349V59.8992C74 58.8247 73.1257 57.9504 72.0513 57.9504ZM18.9895 63.6801H2.16797V60.0827H18.9895V63.6801ZM71.6639 45.1223H66.7153L71.7329 40.1047V45.0532C71.7329 45.0912 71.7021 45.1223 71.6639 45.1223ZM71.7329 33.2603V37.0386L63.6493 45.1223H60.899H53.6699L65.601 33.1912H71.6639C71.7021 33.1912 71.7329 33.2222 71.7329 33.2603ZM41.7805 45.1223C42.9622 43.9404 52.3807 34.5219 53.7114 33.1912H62.5349L50.6039 45.1223H41.7805ZM38.7144 45.1223H28.735L40.6662 33.1912H50.6453C43.0434 40.7933 46.3107 37.526 38.7144 45.1223ZM14.185 31.0233V29.1295H14.2285H59.8151V31.0233C58.5956 31.0233 15.4033 31.0233 14.185 31.0233ZM53.7114 15.0306H62.5349L50.6039 26.9616H41.7804L53.7114 15.0306ZM64.8597 31.0233H61.9831V29.1295H64.8597V31.0233ZM71.6639 26.9615H66.7153L71.7329 21.9439V26.8924C71.7329 26.9306 71.7021 26.9615 71.6639 26.9615ZM71.7329 15.0997V18.878L63.6493 26.9616H60.899H53.6699L65.601 15.0306H71.6639C71.7021 15.0306 71.7329 15.0615 71.7329 15.0997ZM61.983 10.2843H64.8596V12.8625H61.983V10.2843ZM28.7765 15.0306H37.5999L25.669 26.9616H16.8454L28.7765 15.0306ZM9.14045 10.2843H12.0171V12.8625H9.14045V10.2843ZM2.26712 15.0997C2.26712 15.0615 2.29805 15.0306 2.3362 15.0306H8.05646H12.6651L2.26712 25.4286V15.0997ZM15.7311 15.0306H25.7105L13.7795 26.9616C12.3574 26.9616 4.59118 26.9616 3.80002 26.9616L15.7311 15.0306ZM9.14045 29.1295H12.0171V31.0233H9.14045V29.1295ZM2.26712 33.2603C2.26712 33.2222 2.29805 33.1912 2.3362 33.1912H12.6651L2.26712 43.5892V33.2603ZM13.7795 45.1223C12.3574 45.1223 4.59118 45.1223 3.80002 45.1223L15.7311 33.1912H25.7105L13.7795 45.1223ZM28.7765 33.1912H37.5999L25.669 45.1223H16.8454L28.7765 33.1912ZM64.8597 47.2902V57.9147H61.9831V47.2902H64.8597ZM71.832 63.7158H55.0105V60.1184H71.832V63.7158Z" fill="white"/>
</g>
<defs>
<clipPath id="clip0">
<rect width="74" height="74" fill="white"/>
</clipPath>
</defs>
</svg>
