<svg width="48" height="48" viewBox="0 0 48 48" fill="none" xmlns="http://www.w3.org/2000/svg">
<path d="M43.7812 7.55713H4.21875C1.89253 7.55713 0 9.44966 0 11.7759V36.2242C0 38.5504 1.89253 40.4429 4.21875 40.4429H43.7812C46.1075 40.4429 48 38.5504 48 36.2242V11.7759C48 9.44966 46.1075 7.55713 43.7812 7.55713ZM43.2307 10.3696L42.6676 10.8385L25.6738 24.9892C24.7039 25.7968 23.2959 25.7968 22.3262 24.9892L5.33241 10.8385L4.76934 10.3696H43.2307ZM2.8125 12.4001L16.6586 23.9297L2.8125 33.1447V12.4001ZM43.7812 37.6304H4.21875C3.53925 37.6304 2.97094 37.1459 2.84072 36.5044L18.9137 25.8074L20.5266 27.1505C21.5329 27.9884 22.7665 28.4074 24.0001 28.4074C25.2337 28.4074 26.4672 27.9884 27.4736 27.1505L29.0865 25.8074L45.1594 36.5043C45.0291 37.146 44.4608 37.6304 43.7812 37.6304ZM45.1875 33.1447L31.3414 23.9298L45.1875 12.4001V33.1447Z" fill="black"/>
</svg>
