<svg width="77" height="77" viewBox="0 0 77 77" fill="none" xmlns="http://www.w3.org/2000/svg">
<path d="M73.5109 72.193L61.8334 71.0248L56.4771 66.7405L55.3835 57.9901L60.5172 48.7501L65.4211 52.6735C65.5445 52.7723 65.6862 52.8458 65.838 52.8898C65.9898 52.9338 66.1487 52.9475 66.3058 52.93C66.4629 52.9126 66.615 52.8644 66.7534 52.7882C66.8919 52.712 67.014 52.6092 67.1127 52.4858C67.2115 52.3624 67.285 52.2208 67.329 52.069C67.373 51.9172 67.3867 51.7583 67.3692 51.6012C67.3518 51.4441 67.3036 51.292 67.2274 51.1535C67.1512 51.0151 67.0484 50.893 66.925 50.7943L60.9335 46.001L58.2108 43.5526C57.9726 43.3465 57.6631 43.2421 57.3488 43.2617C57.0344 43.2813 56.7402 43.4233 56.5295 43.6574C56.3187 43.8915 56.2082 44.1989 56.2215 44.5136C56.2349 44.8283 56.3712 45.1251 56.601 45.3405L58.6391 47.1752L55.902 52.1081C55.8443 52.0058 55.8022 51.8963 55.736 51.7977L49.0791 41.8117C48.5305 40.9871 47.7864 40.311 46.9131 39.8437C46.0398 39.3765 45.0645 39.1325 44.0741 39.1336H39.3422L36.7194 34.587C36.5598 34.3105 36.297 34.1087 35.9887 34.026C35.6804 33.9433 35.3518 33.9865 35.0753 34.146C34.7988 34.3056 34.597 34.5684 34.5143 34.8767C34.4317 35.185 34.4748 35.5136 34.6344 35.7901L35.8916 37.9689L29.6414 41.5783L29.0398 40.5364C28.8803 40.2601 28.6175 40.0585 28.3093 39.9759C28.0011 39.8933 27.6727 39.9365 27.3964 40.0961L24.2682 41.9007L21.2604 36.6912C21.158 36.5135 21.0118 36.365 20.8357 36.2597C20.6597 36.1544 20.4597 36.0959 20.2546 36.0897C20.0477 36.0715 19.84 36.1126 19.6557 36.2083C19.4713 36.304 19.3181 36.4502 19.2139 36.6299L14.7624 43.3674C14.6393 43.5539 14.5707 43.771 14.5641 43.9943C14.5575 44.2176 14.6132 44.4384 14.7251 44.6318L18.3344 50.8881C18.4225 51.0404 18.4762 51.2101 18.4916 51.3854C18.5069 51.5606 18.4837 51.7371 18.4235 51.9025C18.3633 52.0678 18.2675 52.2178 18.143 52.3421C18.0185 52.4664 17.8682 52.5619 17.7028 52.6218C17.4148 52.7053 17.1067 52.687 16.8306 52.57C16.5545 52.453 16.3272 52.2444 16.1869 51.9793L11.8556 44.4839C11.6491 44.1235 11.5389 43.716 11.5355 43.3007C11.5322 42.8854 11.6358 42.4762 11.8364 42.1125L16.6837 33.379C17.2133 32.4273 17.9913 31.6372 18.9348 31.0931L20.002 30.4759C20.2252 30.3464 20.4009 30.1486 20.5031 29.9116C20.6053 29.6746 20.6286 29.411 20.5695 29.1598C20.5105 28.9085 20.3722 28.683 20.1751 28.5163C19.978 28.3497 19.7326 28.2509 19.475 28.2345C18.4041 28.1661 17.3711 27.8126 16.4828 27.2106L23.7268 17.6542C24.7609 18.516 25.4725 19.7028 25.7454 21.0211C26.0183 22.3393 25.8365 23.711 25.2295 24.9126C25.1211 25.144 25.0891 25.4039 25.1383 25.6547C25.1874 25.9055 25.3152 26.1341 25.503 26.3074C25.6908 26.4807 25.9288 26.5897 26.1827 26.6186C26.4366 26.6476 26.6932 26.5949 26.9151 26.4683L29.7172 24.8573C29.8793 24.7636 30.0173 24.6335 30.1202 24.4771L34.5718 17.7396C34.6923 17.5532 34.7589 17.3371 34.7642 17.1152C34.7695 16.8933 34.7133 16.6743 34.6019 16.4823L31.0563 10.3464C30.9236 10.1075 30.8615 9.83594 30.877 9.56316L34.0485 10.7073L37.4689 16.6291C37.6751 16.9896 37.7851 17.397 37.7885 17.8123C37.7919 18.2275 37.6884 18.6367 37.4882 19.0005L31.6699 29.4809C31.5688 29.6626 31.5166 29.8674 31.5183 30.0753C31.52 30.2832 31.5755 30.4871 31.6795 30.6672L32.2269 31.6152C32.3865 31.8917 32.6493 32.0935 32.9576 32.1762C33.1103 32.2171 33.2695 32.2276 33.4262 32.207C33.583 32.1864 33.7341 32.1352 33.871 32.0562C34.0079 31.9772 34.1279 31.872 34.2241 31.7466C34.3204 31.6212 34.391 31.4781 34.432 31.3255C34.4729 31.1728 34.4834 31.0136 34.4628 30.8569C34.4422 30.7001 34.3909 30.549 34.3119 30.4121L34.105 30.0512L39.5912 20.1663C39.9923 19.4389 40.1995 18.6205 40.1927 17.7899C40.186 16.9593 39.9656 16.1444 39.5527 15.4236L37.5664 11.9875L43.3125 14.0761V20.4526C43.3127 20.6262 43.3504 20.7977 43.4231 20.9553C43.4958 21.113 43.6017 21.253 43.7336 21.3658L51.3999 27.9373L47.0807 35.4917C46.9446 35.7303 46.8943 36.0083 46.938 36.2795C46.9818 36.5507 47.1171 36.7987 47.3213 36.9824L53.337 42.3964C53.5751 42.6025 53.8847 42.707 54.199 42.6874C54.5134 42.6678 54.8075 42.5257 55.0183 42.2917C55.229 42.0576 55.3396 41.7502 55.3262 41.4355C55.3128 41.1208 55.1766 40.8239 54.9467 40.6086L49.653 35.843L53.9626 28.3006L56.346 24.7249C56.4337 24.5935 56.4946 24.446 56.5253 24.291C56.556 24.136 56.5559 23.9765 56.5249 23.8215C56.494 23.6666 56.4328 23.5193 56.3449 23.3879C56.257 23.2566 56.1442 23.1439 56.0127 23.0562C55.8812 22.9685 55.7338 22.9076 55.5788 22.8769C55.4238 22.8462 55.2643 22.8463 55.1093 22.8772C54.9544 22.9082 54.807 22.9693 54.6757 23.0572C54.5444 23.1451 54.4317 23.258 54.344 23.3895L52.6909 25.8691L45.7188 19.8992V14.9038L51.3542 16.7819C51.5043 16.8318 51.6628 16.8517 51.8205 16.8404C51.9783 16.8291 52.1323 16.7868 52.2738 16.716C52.4152 16.6451 52.5413 16.5471 52.6449 16.4276C52.7484 16.308 52.8274 16.1692 52.8774 16.0191C52.9273 15.869 52.9472 15.7106 52.9358 15.5528C52.9245 15.395 52.8823 15.241 52.8114 15.0996C52.7406 14.9581 52.6426 14.832 52.523 14.7285C52.4035 14.6249 52.2647 14.5459 52.1146 14.496L44.9139 12.0897L32.0284 7.41317L28.6344 2.88702C28.4429 2.63175 28.1579 2.46298 27.842 2.41786C27.5262 2.37273 27.2053 2.45494 26.95 2.64639C26.6947 2.83784 26.526 3.12286 26.4809 3.43874C26.4357 3.75463 26.5179 4.0755 26.7094 4.33077L29.1156 7.53589C28.7174 8.12249 28.4929 8.80963 28.468 9.51821C28.4431 10.2268 28.6188 10.928 28.9749 11.5411L32.1487 17.037L28.2674 22.9142L28.2482 22.9263C28.3678 21.5665 28.1515 20.1982 27.6184 18.9416C27.0854 17.685 26.2518 16.5786 25.191 15.7195L26.2077 14.3781C26.3977 14.1277 26.4821 13.8129 26.443 13.501C26.4039 13.1892 26.2443 12.905 25.9983 12.7093C25.1981 12.0769 24.3132 11.5598 23.3695 11.1729L21.631 3.35263C21.5967 3.19826 21.5324 3.05217 21.4416 2.92267C21.3509 2.79318 21.2355 2.68283 21.1021 2.59792C20.9687 2.51302 20.8199 2.45521 20.6642 2.42782C20.5084 2.40042 20.3488 2.40397 20.1945 2.43825C20.0401 2.47254 19.894 2.53689 19.7645 2.62764C19.635 2.71838 19.5247 2.83375 19.4398 2.96714C19.2683 3.23655 19.2108 3.56303 19.2801 3.87478L20.7455 10.4667C18.3514 10.1275 15.9128 10.6008 13.8194 11.811C11.7261 13.0211 10.0989 14.8982 9.1982 17.1422C8.29746 19.3861 8.17513 21.8673 8.85078 24.189C9.52643 26.5106 10.961 28.5387 12.9252 29.9489C13.1799 30.1323 13.4962 30.209 13.8066 30.1624C14.117 30.1159 14.397 29.9499 14.5867 29.6999L15.0403 29.0983C15.4819 29.4119 15.9529 29.6818 16.4467 29.9044C15.6976 30.5512 15.0684 31.325 14.5879 32.1903L9.74533 40.9298C9.3439 41.6571 9.13657 42.4755 9.14332 43.3062C9.15006 44.1369 9.37065 44.9519 9.78383 45.6726L14.1151 53.168C14.4434 53.7415 14.9159 54.2192 15.4857 54.5539C16.0554 54.8885 16.7028 55.0686 17.3635 55.0762C17.4393 55.0762 17.5163 55.0605 17.5921 55.0557C14.7478 60.3555 11.0055 65.1215 6.53178 69.1419L2.80209 72.4962C2.6811 72.6009 2.5822 72.7287 2.51119 72.8721C2.44018 73.0154 2.39848 73.1715 2.38853 73.3312C2.37858 73.4909 2.40058 73.651 2.45324 73.802C2.5059 73.9531 2.58817 74.0922 2.69523 74.2111C2.80229 74.33 2.93199 74.4263 3.07673 74.4945C3.22148 74.5627 3.37837 74.6013 3.53823 74.6081C3.69808 74.6149 3.85768 74.5897 4.00769 74.5341C4.1577 74.4784 4.29511 74.3934 4.41187 74.2841L8.14156 70.9298C13.749 65.8962 18.2499 59.7528 21.3591 52.8889C21.9294 51.6352 22.4419 50.3431 22.9147 49.0389C23.6674 49.9917 24.7528 50.6241 25.9529 50.809C27.1529 50.9939 28.3784 50.7176 29.3829 50.0356C30.3875 49.3536 31.0965 48.3166 31.3674 47.133C31.6384 45.9495 31.4511 44.7072 30.8433 43.6561L37.0996 40.0467L37.6109 40.9322C37.7165 41.1151 37.8684 41.267 38.0513 41.3726C38.2342 41.4782 38.4416 41.5338 38.6528 41.5338H44.0801C44.675 41.5329 45.2609 41.6791 45.7856 41.9593C46.3104 42.2395 46.7578 42.6451 47.0879 43.14L53.7448 53.1259C53.9056 53.3653 54.017 53.6345 54.0723 53.9175C54.1277 54.2006 54.126 54.4918 54.0672 54.7742C54.0078 55.06 53.8921 55.3311 53.7268 55.5717C53.5616 55.8124 53.3501 56.0177 53.1048 56.1758C52.6045 56.4711 52.0097 56.5625 51.4438 56.431C50.878 56.2995 50.3844 55.9553 50.0657 55.4696L44.0368 46.8576C43.9257 46.6991 43.778 46.5698 43.6063 46.4806C43.4345 46.3913 43.2438 46.3449 43.0502 46.3451H34.4792C34.268 46.3451 34.0605 46.4007 33.8776 46.5063C33.6947 46.6119 33.5428 46.7638 33.4373 46.9467C33.3317 47.1296 33.2761 47.337 33.2761 47.5482C33.2761 47.7594 33.3317 47.9669 33.4373 48.1498L37.3739 54.9691C37.6719 55.4834 37.838 56.0635 37.8573 56.6576C37.8766 57.2517 37.7486 57.8414 37.4846 58.3739L32.1644 69.1335C32.0375 69.392 31.8603 69.6227 31.6431 69.8119C31.426 70.0011 31.1733 70.1452 30.8999 70.2355C30.6224 70.3277 30.3292 70.3635 30.0377 70.3407C29.7462 70.318 29.4621 70.2373 29.2023 70.1032C28.6972 69.8168 28.3214 69.3474 28.1526 68.7919C27.9838 68.2364 28.0348 67.6372 28.2951 67.1182L32.7382 57.5907C32.8201 57.4154 32.8585 57.2229 32.8501 57.0296C32.8417 56.8363 32.7869 56.6478 32.6901 56.4802L30.5462 52.7638C30.3866 52.4873 30.1238 52.2855 29.8154 52.2028C29.5071 52.1201 29.1786 52.1633 28.9021 52.3228C28.6256 52.4824 28.4238 52.7452 28.3411 53.0535C28.2584 53.3619 28.3016 53.6904 28.4611 53.9669L30.2935 57.1407L26.1138 66.1004C25.7605 66.7999 25.5922 67.5782 25.6251 68.3612C25.658 69.1441 25.891 69.9056 26.3018 70.5729C26.7126 71.2403 27.2876 71.7912 27.9719 72.1732C28.6561 72.5551 29.4268 72.7554 30.2105 72.7549C31.0655 72.7535 31.9031 72.5138 32.6294 72.0626C33.3556 71.6114 33.9416 70.9666 34.3216 70.2007L39.6418 59.4411C40.0816 58.5534 40.2951 57.5707 40.2632 56.5806C40.2313 55.5904 39.955 54.6235 39.4589 53.766L36.5642 48.7513H42.4138L48.0829 56.8496C48.6263 57.6284 49.391 58.2263 50.2779 58.5658C51.1648 58.9054 52.1332 58.971 53.0578 58.7541L54.1539 67.5237C54.1925 67.8346 54.3509 68.1182 54.5954 68.3142L60.611 73.1267C60.7906 73.2731 61.0087 73.3646 61.2391 73.3901L73.2703 74.5933C73.3104 74.5956 73.3506 74.5956 73.3906 74.5933C73.6993 74.5933 73.9962 74.4747 74.2199 74.262C74.4436 74.0492 74.577 73.7587 74.5924 73.4504C74.6079 73.1421 74.5042 72.8396 74.3029 72.6056C74.1016 72.3716 73.8181 72.2239 73.5109 72.193ZM13.4269 27.2503C12.8504 26.7023 12.3557 26.0742 11.9579 25.3855C10.8432 23.4506 10.5416 21.1525 11.1193 18.9956C11.6969 16.8386 13.1066 14.9988 15.0391 13.88C16.0627 13.2863 17.2008 12.9172 18.378 12.7971C19.5552 12.677 20.7444 12.8087 21.8668 13.1834C21.9159 13.2031 21.9661 13.22 22.0172 13.2339C22.5436 13.4132 23.051 13.6441 23.5319 13.9233L13.4269 27.2503ZM17.1855 44.0628L20.15 39.5727L22.1844 43.0967L21.1425 43.6982C20.8662 43.8578 20.6646 44.1205 20.582 44.4288C20.4994 44.737 20.5426 45.0654 20.7022 45.3417L21.2953 46.3704C20.9745 47.3698 20.6208 48.3603 20.2342 49.3421L17.1855 44.0628ZM28.9953 46.6808C28.9138 46.9862 28.7727 47.2725 28.58 47.5232C28.3874 47.7739 28.147 47.984 27.8728 48.1414C27.3201 48.4604 26.6634 48.5469 26.047 48.3817C25.4305 48.2166 24.905 47.8133 24.5859 47.2607L23.3827 45.1769L27.5504 42.7706L28.7535 44.8544C28.9124 45.1278 29.0156 45.4299 29.0571 45.7434C29.0986 46.0569 29.0776 46.3755 28.9953 46.6808Z" fill="white"/>
<path d="M67.6662 30.1143L62.8537 28.9112C62.5881 28.8448 62.3078 28.8709 62.0591 28.9853C61.8104 29.0997 61.6081 29.2955 61.4857 29.5404L59.0795 34.3529C58.9368 34.6385 58.9135 34.969 59.0146 35.2718C59.1157 35.5746 59.3329 35.8249 59.6185 35.9675C59.9041 36.1101 60.2346 36.1335 60.5374 36.0324C60.8402 35.9313 61.0904 35.7141 61.2331 35.4285L63.2074 31.4798L67.0839 32.4423C67.2385 32.4847 67.4001 32.4958 67.559 32.4749C67.718 32.454 67.8712 32.4015 68.0096 32.3205C68.148 32.2396 68.2688 32.1318 68.3649 32.0034C68.4611 31.8751 68.5306 31.7289 68.5694 31.5733C68.6082 31.4177 68.6155 31.256 68.591 31.0975C68.5664 30.9391 68.5103 30.7871 68.4262 30.6507C68.342 30.5142 68.2315 30.3959 68.101 30.3027C67.9704 30.2096 67.8226 30.1435 67.6662 30.1083V30.1143Z" fill="white"/>
<path d="M64.1182 59.3059L60.5088 62.9153C60.3939 63.0263 60.3022 63.159 60.2392 63.3058C60.1761 63.4526 60.1429 63.6105 60.1415 63.7702C60.1401 63.93 60.1706 64.0884 60.2311 64.2362C60.2916 64.3841 60.3809 64.5184 60.4939 64.6314C60.6068 64.7444 60.7412 64.8337 60.889 64.8942C61.0369 64.9547 61.1953 64.9851 61.3551 64.9837C61.5148 64.9824 61.6727 64.9492 61.8195 64.8861C61.9663 64.8231 62.099 64.7314 62.21 64.6165L65.1216 61.7049L67.9104 63.5638C68.0419 63.6514 68.1893 63.7124 68.3443 63.7431C68.4993 63.7738 68.6588 63.7737 68.8138 63.7427C68.9688 63.7118 69.1161 63.6506 69.2474 63.5627C69.3787 63.4748 69.4915 63.3619 69.5792 63.2305C69.6668 63.099 69.7278 62.9516 69.7585 62.7966C69.7892 62.6416 69.7891 62.4821 69.7581 62.3271C69.7272 62.1721 69.666 62.0248 69.5781 61.8935C69.4902 61.7622 69.3773 61.6494 69.2459 61.5618L65.6365 59.1555C65.4051 59.0012 65.1273 58.9318 64.8504 58.9592C64.5736 58.9866 64.3148 59.1092 64.1182 59.3059Z" fill="white"/>
<path d="M65.7869 15.5277L61.7119 19.6027C61.4864 19.8283 61.3596 20.1342 61.3596 20.4533C61.3596 20.7723 61.4864 21.0783 61.7119 21.3039L67.7275 27.3195C67.9544 27.5387 68.2584 27.6599 68.5738 27.6572C68.8893 27.6545 69.191 27.5279 69.4141 27.3049C69.6372 27.0818 69.7637 26.78 69.7664 26.4646C69.7692 26.1491 69.6479 25.8452 69.4287 25.6183L64.2637 20.4533L68.2256 16.4914C68.4304 16.2866 68.5544 16.0149 68.575 15.726C68.5955 15.4372 68.5112 15.1506 68.3375 14.9189L65.2395 10.7874L69.5791 4.27726C69.6668 4.14581 69.7278 3.99837 69.7585 3.84336C69.7892 3.68836 69.7891 3.52883 69.7581 3.37387C69.7272 3.21891 69.666 3.07157 69.5781 2.94025C69.4902 2.80893 69.3773 2.69621 69.2459 2.60852C69.1144 2.52084 68.967 2.4599 68.812 2.42919C68.657 2.39848 68.4974 2.3986 68.3425 2.42955C68.1875 2.4605 68.0402 2.52166 67.9089 2.60955C67.7775 2.69744 67.6648 2.81034 67.5771 2.94179L62.7646 10.1605C62.6265 10.3677 62.556 10.6126 62.5629 10.8615C62.5698 11.1104 62.6537 11.351 62.8031 11.5501L65.7869 15.5277Z" fill="white"/>
<path d="M55.8792 9.42301C56.1106 9.57734 56.3884 9.6467 56.6652 9.61928C56.9421 9.59186 57.2008 9.46936 57.3975 9.27262L62.21 4.46012C62.3249 4.34914 62.4166 4.21638 62.4797 4.06959C62.5427 3.92281 62.5759 3.76493 62.5773 3.60518C62.5787 3.44543 62.5482 3.287 62.4877 3.13914C62.4272 2.99128 62.3379 2.85695 62.2249 2.74399C62.112 2.63102 61.9776 2.54169 61.8298 2.48119C61.6819 2.4207 61.5235 2.39026 61.3637 2.39165C61.204 2.39304 61.0461 2.42622 60.8993 2.48928C60.7525 2.55233 60.6198 2.64399 60.5088 2.7589L56.3941 6.87359L49.9959 2.60851C49.8644 2.52082 49.717 2.45988 49.562 2.42918C49.407 2.39847 49.2475 2.39859 49.0925 2.42954C48.9375 2.46048 48.7902 2.52165 48.6589 2.60954C48.5276 2.69743 48.4148 2.81032 48.3272 2.94178C48.2395 3.07323 48.1785 3.22067 48.1478 3.37567C48.1171 3.53067 48.1172 3.69021 48.1482 3.84517C48.1791 4.00012 48.2403 4.14747 48.3282 4.27878C48.4161 4.4101 48.529 4.52282 48.6604 4.61051L55.8792 9.42301Z" fill="white"/>
</svg>
