<svg width="42" height="42" viewBox="0 0 42 42" fill="none" xmlns="http://www.w3.org/2000/svg">
<g clip-path="url(#clip0)">
<path d="M30.1857 42C28.8299 42 27.4857 41.7603 26.1712 41.2827C20.3802 39.1791 15.0049 35.7528 10.6262 31.3742C6.24757 26.9956 2.82126 21.6203 0.717659 15.8293C0.0416667 13.9682 -0.157825 12.0471 0.124925 10.1191C0.389793 8.3132 1.08933 6.56002 2.14798 5.04906C3.21131 3.53146 4.62891 2.26922 6.24749 1.39882C7.97352 0.470676 9.85745 0 11.8471 0C12.4659 0 13.0008 0.432369 13.1304 1.03741L15.1905 10.651C15.2838 11.0863 15.15 11.5393 14.8352 11.8541L11.3152 15.3741C14.6358 21.9762 20.0241 27.3644 26.6262 30.6851L30.1462 27.165C30.4609 26.8503 30.9139 26.7166 31.3493 26.8097L40.9629 28.8698C41.568 28.9995 42.0003 29.5343 42.0003 30.1531C42.0003 32.1428 41.5296 34.0268 40.6014 35.7528C39.731 37.3714 38.4687 38.789 36.9511 39.8523C35.4402 40.911 33.6871 41.6105 31.881 41.8754C31.3151 41.9585 30.7493 41.9999 30.1857 42ZM10.7985 2.68231C8.174 2.97203 5.84457 4.34764 4.29768 6.55542C2.5582 9.038 2.15257 12.0915 3.18481 14.9331C7.22912 26.0664 15.934 34.7713 27.0673 38.8156C29.9088 39.8478 32.9624 39.4423 35.445 37.7027C37.6528 36.1558 39.0284 33.8264 39.3181 31.2019L31.4975 29.5261L27.8213 33.2023C27.4301 33.5935 26.8358 33.6974 26.3352 33.4621C18.527 29.7938 12.2066 23.4734 8.53828 15.6652C8.30311 15.1646 8.40695 14.5702 8.79815 14.1791L12.4743 10.5029L10.7985 2.68231Z" fill="black"/>
<path d="M40.6875 22.3116C39.9627 22.3116 39.375 21.7239 39.375 20.9991C39.375 10.8675 31.1324 2.62489 21.0008 2.62489C20.276 2.62489 19.6883 2.03724 19.6883 1.31245C19.6883 0.587648 20.276 0 21.0008 0C26.6099 0 31.8833 2.18424 35.8495 6.15045C39.8157 10.1167 41.9999 15.39 41.9999 20.9991C41.9999 21.7239 41.4124 22.3116 40.6875 22.3116Z" fill="black"/>
<path d="M35.4377 22.3113C34.7129 22.3113 34.1252 21.7237 34.1252 20.9989C34.1252 13.762 28.2376 7.87441 21.0008 7.87441C20.276 7.87441 19.6883 7.28676 19.6883 6.56196C19.6883 5.83716 20.276 5.24951 21.0008 5.24951C29.685 5.24951 36.7501 12.3147 36.7501 20.9989C36.7501 21.7237 36.1626 22.3113 35.4377 22.3113Z" fill="black"/>
<path d="M30.1879 22.3115C29.4631 22.3115 28.8755 21.7239 28.8755 20.9991C28.8755 16.6569 25.3429 13.1244 21.0008 13.1244C20.276 13.1244 19.6883 12.5368 19.6883 11.812C19.6883 11.0872 20.276 10.4995 21.0008 10.4995C26.7903 10.4995 31.5004 15.2096 31.5004 20.9991C31.5004 21.7239 30.9128 22.3115 30.1879 22.3115Z" fill="black"/>
</g>
<defs>
<clipPath id="clip0">
<rect width="42" height="42" fill="white"/>
</clipPath>
</defs>
</svg>
