<svg width="78" height="78" viewBox="0 0 78 78" fill="none" xmlns="http://www.w3.org/2000/svg">
<g clip-path="url(#clip0)">
<path d="M75.3664 40.868L70.824 39.051C70.3569 38.8641 69.9884 38.5073 69.7865 38.0461L67.0856 31.8727C65.9335 29.2387 63.3311 27.5369 60.4561 27.5369H54.6914V26.0515H59.9473C60.9974 26.0515 61.8516 25.1973 61.8516 24.1472C61.8516 22.6859 61.8516 19.5007 61.8516 18.0535C61.8516 17.4225 61.3401 16.9109 60.709 16.9109C60.0778 16.9109 59.5664 17.4225 59.5664 18.0535V19.3484C57.2288 19.3484 51.9829 19.3484 49.7402 19.3484C48.6901 19.3484 47.8359 20.2026 47.8359 21.2527V25.7468H44.9962C44.0503 24.7305 41.2871 21.8628 37.802 19.1497C37.304 18.7623 36.5863 18.8514 36.1986 19.3496C35.8108 19.8476 35.9003 20.5655 36.3983 20.953C38.5801 22.6515 40.4953 24.4437 41.808 25.7468H9.17597C12.5038 22.4522 19.8812 15.8445 25.5177 15.8445C27.3667 15.8445 29.5943 16.5862 32.1384 18.049C32.685 18.3633 33.3838 18.175 33.6984 17.628C34.0129 17.0809 33.8244 16.3826 33.2774 16.068C30.3822 14.4033 27.7715 13.5593 25.5176 13.5593C17.6612 13.5593 7.77105 23.8197 5.98315 25.7468H2.28516V23.6902C2.28516 23.0592 1.77374 22.5476 1.14258 22.5476C0.511418 22.5476 0 23.0592 0 23.6902V48.8269C0 49.877 0.854191 50.7312 1.9043 50.7312H2.74219V56.406C2.74219 57.037 3.25361 57.5486 3.88477 57.5486C4.51593 57.5486 5.02734 57.037 5.02734 56.406V50.7312H9.64321C8.15953 52.1838 7.23633 54.2071 7.23633 56.4427C7.23633 60.8529 10.8243 64.4408 15.2344 64.4408C19.2163 64.4408 22.5272 61.5153 23.1326 57.7008H25.6174C26.2228 61.5152 29.5337 64.4408 33.5156 64.4408C37.4976 64.4408 40.8085 61.5153 41.4139 57.7008H43.875V58.1214C43.875 59.1715 44.7292 60.0257 45.7793 60.0257H52.7871C53.8372 60.0257 54.6914 59.1715 54.6914 58.1214V57.6246H57.75C58.3231 61.4763 61.6517 64.4408 65.6602 64.4408C69.6686 64.4408 72.9972 61.4763 73.5703 57.6246H76.0957C77.1458 57.6246 78 56.7704 78 55.7203V44.7578C78 43.0348 76.9663 41.5078 75.3664 40.868ZM75.7148 49.1695H73.582V47.6461H75.7148V49.1695ZM59.5664 23.7662H54.6914V21.6334H59.5664V23.7662ZM50.1211 21.6334H52.4062V37.1153C52.4062 37.7463 52.9177 38.2579 53.5488 38.2579C54.18 38.2579 54.6914 37.7463 54.6914 37.1153V29.8219H60.4561C62.4232 29.8219 64.2038 30.9864 64.992 32.7886L67.6929 38.962C68.1367 39.9763 68.9471 40.7615 69.9751 41.1725L74.5176 42.9895C75.2447 43.2805 75.7145 43.9744 75.7145 44.7576V45.3608H73.2009C72.1508 45.3608 71.2966 46.215 71.2966 47.2651V49.1694H68.9806C67.9683 48.7053 66.8443 48.4445 65.6599 48.4445C64.4754 48.4445 63.3512 48.7053 62.3391 49.1694H54.6914V42.4472C54.6914 41.8162 54.18 41.3046 53.5488 41.3046C52.9177 41.3046 52.4062 41.8162 52.4062 42.4472V48.4457H50.1211V21.6334ZM47.8359 28.0318V30.2789H14.9329C14.3017 30.2789 13.7903 30.7905 13.7903 31.4215C13.7903 32.0525 14.3017 32.5641 14.9329 32.5641H47.8359V37.0963H2.28516V32.5641H9.60086C10.232 32.5641 10.7434 32.0525 10.7434 31.4215C10.7434 30.7905 10.232 30.2789 9.60086 30.2789H2.28516V28.0318H47.8359ZM2.28516 48.4459V46.1988H25.6553C26.2865 46.1988 26.7979 45.6872 26.7979 45.0562C26.7979 44.4252 26.2865 43.9137 25.6553 43.9137H2.28516V39.3814H47.8359V43.9137H30.9873C30.3562 43.9137 29.8448 44.4252 29.8448 45.0562C29.8448 45.6872 30.3562 46.1988 30.9873 46.1988H47.8359V48.4459C34.4151 48.4459 15.6571 48.4459 2.28516 48.4459ZM25.5858 55.4156H23.1643C22.9293 53.5911 22.0783 51.9576 20.8257 50.731H27.9246C26.6717 51.9576 25.8209 53.5911 25.5858 55.4156ZM15.2344 62.1556C12.0842 62.1556 9.52148 59.5929 9.52148 56.4427C9.52148 53.3093 12.0574 50.758 15.1846 50.731C18.2822 50.684 20.9489 53.2866 20.9473 56.4427C20.9473 59.5929 18.3845 62.1556 15.2344 62.1556ZM33.5156 62.1556C30.3655 62.1556 27.8027 59.5929 27.8027 56.4427C27.8027 53.3093 30.3386 50.758 33.4658 50.731C36.5634 50.684 39.2302 53.2866 39.2285 56.4427C39.2285 59.5929 36.6658 62.1556 33.5156 62.1556ZM41.4454 55.4156C41.2104 53.5911 40.3594 51.9576 39.1068 50.731H52.4062V52.8655H45.7793C44.7292 52.8655 43.875 53.7197 43.875 54.7698V55.4156H41.4454ZM52.4062 57.7405H46.1602V55.1507H52.4062V57.7405ZM54.6914 51.4547H59.4148C58.537 52.5516 57.942 53.8832 57.74 55.3394H54.6914V51.4547ZM65.6602 62.1556C62.51 62.1556 59.9473 59.5929 59.9473 56.4427C59.9473 53.2926 62.51 50.7298 65.6602 50.7298C68.8103 50.7298 71.373 53.2926 71.373 56.4427C71.373 59.5929 68.8103 62.1556 65.6602 62.1556ZM73.5804 55.3394C73.3785 53.8832 72.7834 52.5516 71.9055 51.4547H75.7148V55.3394H73.5804Z" fill="white"/>
<path d="M57.3574 42.0093H65.4316C65.8154 42.0093 66.1732 41.8167 66.3848 41.4968C66.5964 41.1769 66.6332 40.7719 66.483 40.419L63.5711 33.5821C63.0316 32.3158 61.7937 31.4976 60.4174 31.4976H57.3574C56.7263 31.4976 56.2148 32.0091 56.2148 32.6401V40.8667C56.2148 41.4977 56.7263 42.0093 57.3574 42.0093ZM58.5 33.7827H60.4172C60.8761 33.7827 61.2888 34.0556 61.4684 34.4776L63.703 39.7241H58.5V33.7827Z" fill="white"/>
<path d="M65.6602 53.0149C63.7702 53.0149 62.2324 54.5525 62.2324 56.4426C62.2324 58.3328 63.7702 59.8704 65.6602 59.8704C67.5501 59.8704 69.0879 58.3328 69.0879 56.4426C69.0879 54.5525 67.5501 53.0149 65.6602 53.0149ZM65.6602 57.5852C65.0301 57.5852 64.5176 57.0727 64.5176 56.4426C64.5176 55.8125 65.0301 55.3 65.6602 55.3C66.2902 55.3 66.8027 55.8125 66.8027 56.4426C66.8027 57.0727 66.2902 57.5852 65.6602 57.5852Z" fill="white"/>
<path d="M15.2344 53.0149C13.3444 53.0149 11.8066 54.5525 11.8066 56.4426C11.8066 58.3328 13.3444 59.8704 15.2344 59.8704C17.1244 59.8704 18.6621 58.3328 18.6621 56.4426C18.6621 54.5525 17.1244 53.0149 15.2344 53.0149ZM15.2344 57.5852C14.6043 57.5852 14.0918 57.0727 14.0918 56.4426C14.0918 55.8125 14.6043 55.3 15.2344 55.3C15.8645 55.3 16.377 55.8125 16.377 56.4426C16.377 57.0727 15.8645 57.5852 15.2344 57.5852Z" fill="white"/>
<path d="M33.5156 53.0149C31.6256 53.0149 30.0879 54.5525 30.0879 56.4426C30.0879 58.3328 31.6256 59.8704 33.5156 59.8704C35.4056 59.8704 36.9434 58.3328 36.9434 56.4426C36.9434 54.5525 35.4056 53.0149 33.5156 53.0149ZM33.5156 57.5852C32.8855 57.5852 32.373 57.0727 32.373 56.4426C32.373 55.8125 32.8855 55.3 33.5156 55.3C34.1457 55.3 34.6582 55.8125 34.6582 56.4426C34.6582 57.0727 34.1457 57.5852 33.5156 57.5852Z" fill="white"/>
</g>
<defs>
<clipPath id="clip0">
<rect width="78" height="78" fill="white"/>
</clipPath>
</defs>
</svg>
